<?xml version="1.0" encoding="utf-8"?>
<!-- Generator: Adobe Illustrator 24.3.0, SVG Export Plug-In . SVG Version: 6.00 Build 0)  -->
<svg version="1.1" id="Layer_1" xmlns="http://www.w3.org/2000/svg" xmlns:xlink="http://www.w3.org/1999/xlink" x="0px" y="0px"
	 viewBox="0 0 201.2 142.4" style="enable-background:new 0 0 201.2 142.4;" xml:space="preserve">
<style type="text/css">
	.st0{fill:#63C9D8;}
</style>
<path class="st0" d="M196.8,0H4.4C1.9,0,0,1.9,0,4.4V138c0,2.4,1.9,4.4,4.4,4.4h192.5c2.4,0,4.4-1.9,4.4-4.4V4.4
	C201.2,1.9,199.2,0,196.8,0z M178.4,23.8L72.3,125.7c-0.9,0.9-2.2,1.4-3.5,1.4c-0.1,0-0.2,0-0.4,0c-1.4-0.1-2.7-0.8-3.6-1.9L22.3,70
	c-1.7-2.2-1.3-5.3,0.9-7c2.2-1.7,5.3-1.3,7,0.9l39.1,50.7l102.1-98c2-1.9,5.2-1.9,7.1,0.1C180.4,18.8,180.4,21.9,178.4,23.8z"/>
</svg>
