<?xml version="1.0" encoding="utf-8"?>
<!-- Generator: Adobe Illustrator 24.3.0, SVG Export Plug-In . SVG Version: 6.00 Build 0)  -->
<svg version="1.1" id="Layer_1" xmlns="http://www.w3.org/2000/svg" xmlns:xlink="http://www.w3.org/1999/xlink" x="0px" y="0px"
	 viewBox="0 0 204.4 129.8" style="enable-background:new 0 0 204.4 129.8;" xml:space="preserve">
<style type="text/css">
	.st0{fill:none;stroke:#63C9D8;stroke-width:3;stroke-miterlimit:10;}
	.st1{fill:#63C9D8;}
</style>
<path class="st0" d="M182.5,1.5H21.9c-11.3,0-20.4,9.1-20.4,20.4v86c0,11.3,9.1,20.4,20.4,20.4h160.6c11.3,0,20.4-9.1,20.4-20.4v-86
	C202.9,10.6,193.8,1.5,182.5,1.5z M191.6,107.9c0,5-4.1,9.1-9.1,9.1H21.9c-5,0-9.1-4.1-9.1-9.1v-86c0-5,4.1-9.1,9.1-9.1h160.6
	c5,0,9.1,4.1,9.1,9.1V107.9z"/>
<g>
	<path class="st1" d="M58,52.9c-1.5,0-2.8,0.6-3.7,1.9c-1.5,1.9-2.2,4.2-2.2,7v5.5c0,2.7,0.8,5.1,2.3,7.1c0.8,1.1,2.1,1.7,3.6,1.7
		c1.5,0,2.7-0.6,3.7-1.9c1.5-1.9,2.2-4.2,2.2-7v-5.5c0-2.7-0.8-5.1-2.3-7.1C60.7,53.5,59.5,52.9,58,52.9z"/>
	<path class="st1" d="M178.3,52.9c-1.5,0-2.8,0.6-3.7,1.9c-1.5,1.9-2.2,4.2-2.2,7v5.5c0,2.7,0.8,5.1,2.3,7.1
		c0.8,1.1,2.1,1.7,3.6,1.7c1.5,0,2.7-0.6,3.7-1.9c1.5-1.9,2.2-4.2,2.2-7v-5.5c0-2.7-0.8-5.1-2.3-7.1
		C181.1,53.5,179.9,52.9,178.3,52.9z"/>
	<path class="st1" d="M182.5,12.8H21.9c-5,0-9.1,4.1-9.1,9.1v86c0,5,4.1,9.1,9.1,9.1h160.6c5,0,9.1-4.1,9.1-9.1v-86
		C191.6,16.9,187.5,12.8,182.5,12.8z M38.1,79.7c-0.5,0.5-1.4,0.7-2.6,0.7H20.4c-1.2,0-2.1-0.2-2.6-0.7c-0.5-0.5-0.8-1.1-0.8-1.8
		c0-0.7,0.3-1.3,0.8-1.8c0.5-0.5,1.4-0.7,2.6-0.7h5.1V54.4l-4.5,1.2c-0.7,0.2-1.3,0.3-1.6,0.3c-0.6,0-1.2-0.3-1.7-0.8
		C17.2,54.7,17,54,17,53.3c0-0.7,0.2-1.2,0.5-1.6c0.3-0.4,1.1-0.7,2.2-1l10.8-2.8v27.5h5.1c1.2,0,2.1,0.2,2.6,0.7
		c0.5,0.5,0.8,1.1,0.8,1.8C38.9,78.6,38.6,79.2,38.1,79.7z M68.9,67.3c0,3.3-0.9,6.4-2.8,9.4c-1.9,3-4.6,4.5-8.1,4.5
		c-2,0-3.7-0.4-5.1-1.3c-1.4-0.9-2.7-2.5-4-4.9S47,70,47,67.3v-5.5c0-3.2,0.9-6.4,2.8-9.4c1.9-3,4.6-4.5,8.1-4.5
		c2,0,3.7,0.4,5.1,1.3c1.4,0.9,2.7,2.5,4,4.9c1.3,2.4,1.9,4.9,1.9,7.6V67.3z M99,67.3c0,3.3-0.9,6.4-2.8,9.4c-1.9,3-4.6,4.5-8.1,4.5
		c-2,0-3.7-0.4-5.1-1.3c-1.4-0.9-2.7-2.5-4-4.9s-1.9-4.9-1.9-7.6v-5.5c0-3.2,0.9-6.4,2.8-9.4c1.9-3,4.6-4.5,8.1-4.5
		c2,0,3.7,0.4,5.1,1.3c1.4,0.9,2.7,2.5,4,4.9c1.3,2.4,1.9,4.9,1.9,7.6V67.3z M128.3,79.7c-0.5,0.5-1.4,0.7-2.6,0.7h-15.2
		c-1.2,0-2.1-0.2-2.6-0.7c-0.5-0.5-0.8-1.1-0.8-1.8c0-0.7,0.3-1.3,0.8-1.8c0.5-0.5,1.4-0.7,2.6-0.7h5.1V54.4l-4.5,1.2
		c-0.7,0.2-1.3,0.3-1.6,0.3c-0.6,0-1.2-0.3-1.7-0.8c-0.5-0.5-0.7-1.1-0.7-1.9c0-0.7,0.2-1.2,0.5-1.6c0.3-0.4,1.1-0.7,2.2-1l10.8-2.8
		v27.5h5.1c1.2,0,2.1,0.2,2.6,0.7c0.5,0.5,0.8,1.1,0.8,1.8C129.1,78.6,128.9,79.2,128.3,79.7z M158.4,79.7c-0.5,0.5-1.4,0.7-2.6,0.7
		h-15.2c-1.2,0-2.1-0.2-2.6-0.7c-0.5-0.5-0.8-1.1-0.8-1.8c0-0.7,0.3-1.3,0.8-1.8c0.5-0.5,1.4-0.7,2.6-0.7h5.1V54.4l-4.5,1.2
		c-0.7,0.2-1.3,0.3-1.6,0.3c-0.6,0-1.2-0.3-1.7-0.8c-0.5-0.5-0.7-1.1-0.7-1.9c0-0.7,0.2-1.2,0.5-1.6c0.3-0.4,1.1-0.7,2.2-1l10.8-2.8
		v27.5h5.1c1.2,0,2.1,0.2,2.6,0.7c0.5,0.5,0.8,1.1,0.8,1.8C159.2,78.6,158.9,79.2,158.4,79.7z M189.3,67.3c0,3.3-0.9,6.4-2.8,9.4
		c-1.9,3-4.6,4.5-8.1,4.5c-2,0-3.7-0.4-5.1-1.3c-1.4-0.9-2.7-2.5-4-4.9s-1.9-4.9-1.9-7.6v-5.5c0-3.2,0.9-6.4,2.8-9.4
		c1.9-3,4.6-4.5,8.1-4.5c2,0,3.7,0.4,5.1,1.3c1.4,0.9,2.7,2.5,4,4.9c1.3,2.4,1.9,4.9,1.9,7.6V67.3z"/>
	<path class="st1" d="M88,52.9c-1.5,0-2.8,0.6-3.7,1.9c-1.5,1.9-2.2,4.2-2.2,7v5.5c0,2.7,0.8,5.1,2.3,7.1c0.8,1.1,2.1,1.7,3.6,1.7
		c1.5,0,2.7-0.6,3.7-1.9c1.5-1.9,2.2-4.2,2.2-7v-5.5c0-2.7-0.8-5.1-2.3-7.1C90.8,53.5,89.6,52.9,88,52.9z"/>
</g>
</svg>
