<?xml version="1.0" encoding="utf-8"?>
<!-- Generator: Adobe Illustrator 24.3.0, SVG Export Plug-In . SVG Version: 6.00 Build 0)  -->
<svg version="1.1" id="Layer_1" xmlns="http://www.w3.org/2000/svg" xmlns:xlink="http://www.w3.org/1999/xlink" x="0px" y="0px"
	 viewBox="0 0 67.7 67.7" style="enable-background:new 0 0 67.7 67.7;" xml:space="preserve">
<style type="text/css">
	.st0{fill-rule:evenodd;clip-rule:evenodd;fill:none;stroke:#63C9D8;stroke-width:1.5131;stroke-miterlimit:22.9256;}
	
		.st1{fill-rule:evenodd;clip-rule:evenodd;fill:none;stroke:#63C9D8;stroke-width:1.2804;stroke-miterlimit:22.9256;stroke-dasharray:21.767,44.8143;}
	
		.st2{fill-rule:evenodd;clip-rule:evenodd;fill:none;stroke:#63C9D8;stroke-width:1.2813;stroke-miterlimit:22.9256;stroke-dasharray:11.5313,11.5313;}
	.st3{fill-rule:evenodd;clip-rule:evenodd;fill:#63C9D8;stroke:#63C9D8;stroke-width:1.5;stroke-miterlimit:22.9256;}
</style>
<g>
	<ellipse transform="matrix(0.9773 -0.2118 0.2118 0.9773 -6.4051 7.9418)" class="st0" cx="33.9" cy="33.9" rx="24" ry="24"/>
	<ellipse transform="matrix(0.6341 -0.7733 0.7733 0.6341 -13.797 38.586)" class="st1" cx="33.9" cy="33.9" rx="26.9" ry="26.9"/>
	<ellipse transform="matrix(0.9774 -0.2115 0.2115 0.9774 -6.3965 7.9284)" class="st0" cx="33.9" cy="33.9" rx="30" ry="30"/>
	<ellipse transform="matrix(0.9907 -0.1363 0.1363 0.9907 -4.2993 4.9311)" class="st2" cx="33.9" cy="33.9" rx="33.2" ry="33.2"/>
</g>
<path class="st3" d="M34.1,41.6L34.1,41.6c-2.4,0-4.3-1.9-4.3-4.3V18.2c0-2.4,1.9-4.3,4.3-4.3h0c2.4,0,4.3,1.9,4.3,4.3v19.1
	C38.4,39.6,36.4,41.6,34.1,41.6z"/>
<circle class="st3" cx="34.1" cy="49.7" r="4.3"/>
</svg>
