<?xml version="1.0" encoding="UTF-8" standalone="no"?>
<svg
   version="1.1"
   width="259"
   height="50"
   viewBox="0 0 259 50"
   xml:space="preserve"
   id="svg184"
   sodipodi:docname="signin.svg"
   inkscape:version="1.2 (dc2aeda, 2022-05-15)"
   xmlns:inkscape="http://www.inkscape.org/namespaces/inkscape"
   xmlns:sodipodi="http://sodipodi.sourceforge.net/DTD/sodipodi-0.dtd"
   xmlns="http://www.w3.org/2000/svg"
   xmlns:svg="http://www.w3.org/2000/svg"><sodipodi:namedview
   id="namedview186"
   pagecolor="#ffffff"
   bordercolor="#666666"
   borderopacity="1.0"
   inkscape:showpageshadow="2"
   inkscape:pageopacity="0.0"
   inkscape:pagecheckerboard="0"
   inkscape:deskcolor="#d1d1d1"
   showgrid="false"
   inkscape:zoom="2.1584641"
   inkscape:cx="166.32197"
   inkscape:cy="29.187421"
   inkscape:window-width="1309"
   inkscape:window-height="456"
   inkscape:window-x="0"
   inkscape:window-y="25"
   inkscape:window-maximized="0"
   inkscape:current-layer="svg184" />
<desc
   id="desc132">Created with Fabric.js 3.5.0</desc>
<defs
   id="defs134">
</defs>
<rect
   x="0"
   y="0"
   width="100%"
   height="100%"
   fill="#000000"
   id="rect136" />
<g
   transform="matrix(0.9862 0 0 0.9862 128.4629 26.0339)"
   id="659358">
<path
   style="stroke: rgb(7,239,242); stroke-opacity: 0.5; stroke-width: 2.5; stroke-dasharray: none; stroke-linecap: butt; stroke-dashoffset: 0; stroke-linejoin: miter; stroke-miterlimit: 4; is-custom-font: none; font-file-url: none; fill: rgb(7,239,242); fill-opacity: 0.3; fill-rule: nonzero; opacity: 1;"
   vector-effect="non-scaling-stroke"
   transform=" translate(-130.5, -21.5)"
   d="M 1 10.973 V 42 H 242.923 L 260 31.2883 V 1 H 18.0769 L 1 10.973 Z"
   stroke-linecap="round"
   id="path138" />
</g>

<g
   aria-label="Sign in with Google"
   id="text564"
   style="font-size:16px;line-height:1.25;stroke-width:1.24613"
   transform="matrix(0.80248365,0,0,0.80248365,67.550861,0.1416876)"><path
     d="m 6.9664192,34.111794 2.25,-0.21875 q 0.203125,1.132812 0.8203128,1.664062 0.625,0.53125 1.679687,0.53125 1.117188,0 1.679688,-0.46875 0.570312,-0.476562 0.570312,-1.109375 0,-0.40625 -0.242187,-0.6875 -0.234375,-0.289062 -0.828125,-0.5 -0.40625,-0.140625 -1.851563,-0.5 -1.8593748,-0.460937 -2.6093748,-1.132812 -1.0546875,-0.945313 -1.0546875,-2.304688 0,-0.875 0.4921875,-1.632812 0.5,-0.765625 1.4296875,-1.164063 0.9375003,-0.398437 2.2578123,-0.398437 2.15625,0 3.242188,0.945312 1.09375,0.945313 1.148437,2.523438 l -2.3125,0.101562 q -0.148437,-0.882812 -0.640625,-1.265625 -0.484375,-0.390625 -1.460937,-0.390625 -1.007813,0 -1.5781253,0.414063 -0.3671875,0.265625 -0.3671875,0.710937 0,0.40625 0.34375,0.695313 0.4374998,0.367187 2.1249998,0.765625 1.6875,0.398437 2.492188,0.828125 0.8125,0.421875 1.265625,1.164062 0.460937,0.734375 0.460937,1.820313 0,0.984375 -0.546875,1.84375 -0.546875,0.859375 -1.546875,1.28125 -1,0.414062 -2.492187,0.414062 -2.1718753,0 -3.3359378,-1 -1.1640625,-1.007812 -1.390625,-2.929687 z"
     style="font-weight:bold;font-family:Arial;-inkscape-font-specification:'Arial Bold';fill:#ffffff;stroke-width:1.24613"
     id="path3356" /><path
     d="m 18.208607,28.416481 v -2.03125 h 2.195312 v 2.03125 z m 0,9.421875 v -8.296875 h 2.195312 v 8.296875 z"
     style="font-weight:bold;font-family:Arial;-inkscape-font-specification:'Arial Bold';fill:#ffffff;stroke-width:1.24613"
     id="path3358" /><path
     d="m 22.450794,38.385231 2.507813,0.304688 q 0.0625,0.4375 0.289062,0.601562 0.3125,0.234375 0.984375,0.234375 0.859375,0 1.289063,-0.257812 0.289062,-0.171875 0.4375,-0.554688 0.101562,-0.273437 0.101562,-1.007812 v -1.210938 q -0.984375,1.34375 -2.484375,1.34375 -1.671875,0 -2.648437,-1.414062 -0.765625,-1.117188 -0.765625,-2.78125 0,-2.085938 1,-3.1875 1.007812,-1.101563 2.5,-1.101563 1.539062,0 2.539062,1.351563 v -1.164063 h 2.054688 v 7.445313 q 0,1.46875 -0.242188,2.195312 -0.242187,0.726563 -0.679687,1.140625 -0.4375,0.414063 -1.171875,0.648438 -0.726563,0.234375 -1.84375,0.234375 -2.109375,0 -2.992188,-0.726563 -0.882812,-0.71875 -0.882812,-1.828125 0,-0.109375 0.0078,-0.265625 z m 1.960938,-4.867187 q 0,1.320312 0.507812,1.9375 0.515625,0.609375 1.265625,0.609375 0.804688,0 1.359375,-0.625 0.554688,-0.632813 0.554688,-1.867188 0,-1.289062 -0.53125,-1.914062 -0.53125,-0.625 -1.34375,-0.625 -0.789063,0 -1.304688,0.617187 -0.507812,0.609375 -0.507812,1.867188 z"
     style="font-weight:bold;font-family:Arial;-inkscape-font-specification:'Arial Bold';fill:#ffffff;stroke-width:1.24613"
     id="path3360" /><path
     d="m 39.974232,37.838356 h -2.195313 v -4.234375 q 0,-1.34375 -0.140625,-1.734375 -0.140625,-0.398437 -0.460937,-0.617187 -0.3125,-0.21875 -0.757813,-0.21875 -0.570312,0 -1.023437,0.3125 -0.453125,0.3125 -0.625,0.828125 -0.164063,0.515625 -0.164063,1.90625 v 3.757812 h -2.195312 v -8.296875 h 2.039062 v 1.21875 q 1.085938,-1.40625 2.734375,-1.40625 0.726563,0 1.328125,0.265625 0.601563,0.257813 0.90625,0.664063 0.3125,0.40625 0.429688,0.921875 0.125,0.515625 0.125,1.476562 z"
     style="font-weight:bold;font-family:Arial;-inkscape-font-specification:'Arial Bold';fill:#ffffff;stroke-width:1.24613"
     id="path3362" /><path
     d="m 46.646107,28.416481 v -2.03125 h 2.195312 v 2.03125 z m 0,9.421875 v -8.296875 h 2.195312 v 8.296875 z"
     style="font-weight:bold;font-family:Arial;-inkscape-font-specification:'Arial Bold';fill:#ffffff;stroke-width:1.24613"
     id="path3364" /><path
     d="m 58.638294,37.838356 h -2.195312 v -4.234375 q 0,-1.34375 -0.140625,-1.734375 -0.140625,-0.398437 -0.460938,-0.617187 -0.3125,-0.21875 -0.757812,-0.21875 -0.570313,0 -1.023438,0.3125 -0.453125,0.3125 -0.625,0.828125 -0.164062,0.515625 -0.164062,1.90625 v 3.757812 h -2.195313 v -8.296875 h 2.039063 v 1.21875 q 1.085937,-1.40625 2.734375,-1.40625 0.726562,0 1.328125,0.265625 0.601562,0.257813 0.90625,0.664063 0.3125,0.40625 0.429687,0.921875 0.125,0.515625 0.125,1.476562 z"
     style="font-weight:bold;font-family:Arial;-inkscape-font-specification:'Arial Bold';fill:#ffffff;stroke-width:1.24613"
     id="path3366" /><path
     d="m 66.857044,37.838356 -2.625,-8.296875 h 2.132813 l 1.554687,5.4375 1.429688,-5.4375 h 2.117187 l 1.382813,5.4375 1.585937,-5.4375 h 2.164063 l -2.664063,8.296875 h -2.109375 l -1.429687,-5.335937 -1.40625,5.335937 z"
     style="font-weight:bold;font-family:Arial;-inkscape-font-specification:'Arial Bold';fill:#ffffff;stroke-width:1.24613"
     id="path3368" /><path
     d="m 77.755482,28.416481 v -2.03125 h 2.195312 v 2.03125 z m 0,9.421875 v -8.296875 h 2.195312 v 8.296875 z"
     style="font-weight:bold;font-family:Arial;-inkscape-font-specification:'Arial Bold';fill:#ffffff;stroke-width:1.24613"
     id="path3370" /><path
     d="m 86.005482,29.541481 v 1.75 h -1.5 v 3.34375 q 0,1.015625 0.03906,1.1875 0.04687,0.164063 0.195313,0.273438 0.15625,0.109375 0.375,0.109375 0.304687,0 0.882812,-0.210938 l 0.1875,1.703125 q -0.765625,0.328125 -1.734375,0.328125 -0.59375,0 -1.070312,-0.195312 -0.476563,-0.203125 -0.703125,-0.515625 -0.21875,-0.320313 -0.304688,-0.859375 -0.07031,-0.382813 -0.07031,-1.546875 v -3.617188 h -1.007813 v -1.75 h 1.007813 v -1.648437 l 2.203125,-1.28125 v 2.929687 z"
     style="font-weight:bold;font-family:Arial;-inkscape-font-specification:'Arial Bold';fill:#ffffff;stroke-width:1.24613"
     id="path3372" /><path
     d="m 89.716419,26.385231 v 4.210938 q 1.0625,-1.242188 2.539063,-1.242188 0.757812,0 1.367187,0.28125 0.609375,0.28125 0.914063,0.71875 0.3125,0.4375 0.421875,0.96875 0.117187,0.53125 0.117187,1.648438 v 4.867187 h -2.195312 v -4.382812 q 0,-1.304688 -0.125,-1.65625 -0.125,-0.351563 -0.445313,-0.554688 -0.3125,-0.210937 -0.789062,-0.210937 -0.546875,0 -0.976563,0.265625 -0.429687,0.265625 -0.632812,0.804687 -0.195313,0.53125 -0.195313,1.578125 v 4.15625 H 87.521107 V 26.385231 Z"
     style="font-weight:bold;font-family:Arial;-inkscape-font-specification:'Arial Bold';fill:#ffffff;stroke-width:1.24613"
     id="path3374" /><path
     d="m 107.09142,33.627419 v -1.929688 h 4.98437 v 4.5625 q -0.72656,0.703125 -2.10937,1.242188 -1.375,0.53125 -2.78906,0.53125 -1.79688,0 -3.13282,-0.75 -1.33593,-0.757813 -2.00781,-2.15625 -0.67187,-1.40625 -0.67187,-3.054688 0,-1.789062 0.75,-3.179687 0.75,-1.390625 2.19531,-2.132813 1.10156,-0.570312 2.74219,-0.570312 2.13281,0 3.32812,0.898437 1.20313,0.890625 1.54688,2.46875 l -2.29688,0.429688 q -0.24219,-0.84375 -0.91406,-1.328125 -0.66406,-0.492188 -1.66406,-0.492188 -1.51563,0 -2.41407,0.960938 -0.89062,0.960937 -0.89062,2.851562 0,2.039063 0.90625,3.0625 0.90625,1.015625 2.375,1.015625 0.72656,0 1.45312,-0.28125 0.73438,-0.289062 1.25782,-0.695312 v -1.453125 z"
     style="font-weight:bold;font-family:Arial;-inkscape-font-specification:'Arial Bold';fill:#ffffff;stroke-width:1.24613"
     id="path3376" /><path
     d="m 113.68517,33.572731 q 0,-1.09375 0.53906,-2.117187 0.53906,-1.023438 1.52344,-1.5625 0.99219,-0.539063 2.21094,-0.539063 1.88281,0 3.08593,1.226563 1.20313,1.21875 1.20313,3.085937 0,1.882813 -1.21875,3.125 -1.21094,1.234375 -3.05469,1.234375 -1.14062,0 -2.17969,-0.515625 -1.03125,-0.515625 -1.57031,-1.507812 -0.53906,-1 -0.53906,-2.429688 z m 2.25,0.117188 q 0,1.234375 0.58594,1.890625 0.58593,0.65625 1.44531,0.65625 0.85937,0 1.4375,-0.65625 0.58594,-0.65625 0.58594,-1.90625 0,-1.21875 -0.58594,-1.875 -0.57813,-0.65625 -1.4375,-0.65625 -0.85938,0 -1.44531,0.65625 -0.58594,0.65625 -0.58594,1.890625 z"
     style="font-weight:bold;font-family:Arial;-inkscape-font-specification:'Arial Bold';fill:#ffffff;stroke-width:1.24613"
     id="path3378" /><path
     d="m 123.45861,33.572731 q 0,-1.09375 0.53906,-2.117187 0.53906,-1.023438 1.52344,-1.5625 0.99218,-0.539063 2.21093,-0.539063 1.88282,0 3.08594,1.226563 1.20313,1.21875 1.20313,3.085937 0,1.882813 -1.21875,3.125 -1.21094,1.234375 -3.05469,1.234375 -1.14063,0 -2.17969,-0.515625 -1.03125,-0.515625 -1.57031,-1.507812 -0.53906,-1 -0.53906,-2.429688 z m 2.25,0.117188 q 0,1.234375 0.58593,1.890625 0.58594,0.65625 1.44532,0.65625 0.85937,0 1.4375,-0.65625 0.58593,-0.65625 0.58593,-1.90625 0,-1.21875 -0.58593,-1.875 -0.57813,-0.65625 -1.4375,-0.65625 -0.85938,0 -1.44532,0.65625 -0.58593,0.65625 -0.58593,1.890625 z"
     style="font-weight:bold;font-family:Arial;-inkscape-font-specification:'Arial Bold';fill:#ffffff;stroke-width:1.24613"
     id="path3380" /><path
     d="m 133.53673,38.385231 2.50781,0.304688 q 0.0625,0.4375 0.28907,0.601562 0.3125,0.234375 0.98437,0.234375 0.85938,0 1.28906,-0.257812 0.28907,-0.171875 0.4375,-0.554688 0.10157,-0.273437 0.10157,-1.007812 v -1.210938 q -0.98438,1.34375 -2.48438,1.34375 -1.67187,0 -2.64844,-1.414062 -0.76562,-1.117188 -0.76562,-2.78125 0,-2.085938 1,-3.1875 1.00781,-1.101563 2.5,-1.101563 1.53906,0 2.53906,1.351563 v -1.164063 h 2.05469 v 7.445313 q 0,1.46875 -0.24219,2.195312 -0.24219,0.726563 -0.67969,1.140625 -0.4375,0.414063 -1.17187,0.648438 -0.72656,0.234375 -1.84375,0.234375 -2.10938,0 -2.99219,-0.726563 -0.88281,-0.71875 -0.88281,-1.828125 0,-0.109375 0.008,-0.265625 z m 1.96094,-4.867187 q 0,1.320312 0.50781,1.9375 0.51563,0.609375 1.26563,0.609375 0.80468,0 1.35937,-0.625 0.55469,-0.632813 0.55469,-1.867188 0,-1.289062 -0.53125,-1.914062 -0.53125,-0.625 -1.34375,-0.625 -0.78906,0 -1.30469,0.617187 -0.50781,0.609375 -0.50781,1.867188 z"
     style="font-weight:bold;font-family:Arial;-inkscape-font-specification:'Arial Bold';fill:#ffffff;stroke-width:1.24613"
     id="path3382" /><path
     d="M 143.51329,37.838356 V 26.385231 h 2.19532 v 11.453125 z"
     style="font-weight:bold;font-family:Arial;-inkscape-font-specification:'Arial Bold';fill:#ffffff;stroke-width:1.24613"
     id="path3384" /><path
     d="m 152.76329,35.197731 2.1875,0.367188 q -0.42187,1.203125 -1.33593,1.835937 -0.90625,0.625 -2.27344,0.625 -2.16406,0 -3.20313,-1.414062 -0.82031,-1.132813 -0.82031,-2.859375 0,-2.0625 1.07813,-3.226563 1.07812,-1.171875 2.72656,-1.171875 1.85156,0 2.92187,1.226563 1.07032,1.21875 1.02344,3.742187 h -5.5 q 0.0234,0.976563 0.53125,1.523438 0.50781,0.539062 1.26563,0.539062 0.51562,0 0.86718,-0.28125 0.35157,-0.28125 0.53125,-0.90625 z m 0.125,-2.21875 q -0.0234,-0.953125 -0.49218,-1.445312 -0.46875,-0.5 -1.14063,-0.5 -0.71875,0 -1.1875,0.523437 -0.46875,0.523438 -0.46094,1.421875 z"
     style="font-weight:bold;font-family:Arial;-inkscape-font-specification:'Arial Bold';fill:#ffffff;stroke-width:1.24613"
     id="path3386" /></g></svg>
