<svg width="219" height="18" viewBox="0 0 219 18" fill="none" xmlns="http://www.w3.org/2000/svg">
<path d="M3.04 9.98C3.04 10.0333 3.04667 10.1133 3.06 10.22C3.08667 10.3133 3.17333 10.4867 3.32 10.74C3.48 10.98 3.68667 11.2 3.94 11.4C4.20667 11.5867 4.62667 11.76 5.2 11.92C5.77333 12.0667 6.44 12.14 7.2 12.14C8.37333 12.14 9.3 11.9733 9.98 11.64C10.6733 11.2933 11.02 10.84 11.02 10.28C11.02 9.81333 10.7667 9.43333 10.26 9.14C9.75333 8.83333 9.12 8.62667 8.36 8.52C7.61333 8.4 6.79333 8.26 5.9 8.1C5.02 7.94 4.2 7.76667 3.44 7.58C2.68 7.38 2.04 7.04667 1.52 6.58C1.01333 6.1 0.76 5.50667 0.76 4.8C0.76 4.78667 0.76 4.77333 0.76 4.76C0.76 3.54667 1.31333 2.60667 2.42 1.94C3.52667 1.27333 5.04 0.939999 6.96 0.939999C7.8 0.939999 8.56 1.00667 9.24 1.14C9.93333 1.27333 10.4933 1.44 10.92 1.64C11.36 1.84 11.74 2.08 12.06 2.36C12.38 2.62667 12.6133 2.88 12.76 3.12C12.92 3.34667 13.0467 3.58 13.14 3.82C13.2333 4.06 13.2867 4.23333 13.3 4.34C13.3133 4.43333 13.32 4.5 13.32 4.54H10.6C10.5867 4.5 10.5667 4.44667 10.54 4.38C10.5267 4.3 10.44 4.17333 10.28 4C10.1333 3.81333 9.94 3.65333 9.7 3.52C9.47333 3.38667 9.12 3.26667 8.64 3.16C8.16 3.04 7.61333 2.98 7 2.98C5.88 2.98 5 3.14667 4.36 3.48C3.73333 3.8 3.42 4.18667 3.42 4.64C3.42 4.66667 3.42 4.68667 3.42 4.7C3.43333 5.03333 3.63333 5.30667 4.02 5.52C4.40667 5.72 4.9 5.87333 5.5 5.98C6.11333 6.08667 6.78 6.18667 7.5 6.28C8.23333 6.37333 8.96 6.50667 9.68 6.68C10.4133 6.84 11.08 7.05333 11.68 7.32C12.28 7.57333 12.7667 7.95333 13.14 8.46C13.5133 8.95333 13.7 9.55333 13.7 10.26C13.7 11.5667 13.0933 12.5533 11.88 13.22C10.6667 13.8733 9.10667 14.2 7.2 14.2C6 14.2 4.94 14.0533 4.02 13.76C3.11333 13.4533 2.44 13.1133 2 12.74C1.56 12.3533 1.2 11.9333 0.92 11.48C0.64 11.0133 0.473333 10.6667 0.42 10.44C0.366667 10.2133 0.34 10.06 0.34 9.98H3.04ZM17.6616 5V14H15.1216V5H17.6616ZM14.8416 2.4C14.8416 1.97333 14.9882 1.60667 15.2816 1.3C15.5882 0.993332 15.9482 0.839999 16.3616 0.839999C16.7882 0.839999 17.1549 0.993332 17.4616 1.3C17.7682 1.60667 17.9216 1.97333 17.9216 2.4C17.9216 2.81333 17.7682 3.17333 17.4616 3.48C17.1549 3.77333 16.7882 3.92 16.3616 3.92C15.9482 3.92 15.5882 3.77333 15.2816 3.48C14.9882 3.17333 14.8416 2.81333 14.8416 2.4ZM18.9142 9.52C18.9142 8.12 19.4209 6.99333 20.4342 6.14C21.4609 5.27333 22.7809 4.84 24.3942 4.84C24.5409 4.84 24.6876 4.84 24.8342 4.84C26.2609 4.89333 27.3676 5.42667 28.1542 6.44V5H30.6342V14.92C30.6342 16.0267 30.4076 16.76 29.9542 17.12C29.5009 17.48 28.6609 17.66 27.4342 17.66H19.7942V15.64H27.4342C27.6876 15.64 27.8609 15.5867 27.9542 15.48C28.0476 15.3867 28.0942 15.2067 28.0942 14.94V12.6C27.3076 13.5733 26.2342 14.0933 24.8742 14.16C24.7009 14.1733 24.5276 14.18 24.3542 14.18C22.7409 14.18 21.4276 13.7667 20.4142 12.94C19.4142 12.1 18.9142 10.96 18.9142 9.52ZM22.4542 11.52C23.0809 12 23.8476 12.24 24.7542 12.24C25.7142 12.24 26.5209 12.0067 27.1742 11.54C27.8276 11.06 28.1542 10.38 28.1542 9.5C28.1542 8.55333 27.8276 7.86 27.1742 7.42C26.5342 6.98 25.7276 6.76 24.7542 6.76C23.8342 6.76 23.0609 7.00667 22.4342 7.5C21.8209 7.98 21.5142 8.65333 21.5142 9.52C21.5142 10.3733 21.8276 11.04 22.4542 11.52ZM32.0467 14V5H34.4867V6.62C35.2201 5.42 36.4067 4.81333 38.0467 4.8C38.1001 4.8 38.1534 4.8 38.2067 4.8C41.3934 4.8 42.9867 6.3 42.9867 9.3V14H40.4467V9.3C40.4467 7.58 39.5667 6.72 37.8067 6.72C37.7801 6.72 37.7534 6.72 37.7267 6.72C36.7001 6.72 35.9201 7.00667 35.3867 7.58C34.8667 8.14 34.6067 8.9 34.6067 9.86V14H32.0467ZM52.935 5V14H50.395V5H52.935ZM50.115 2.4C50.115 1.97333 50.2617 1.60667 50.555 1.3C50.8617 0.993332 51.2217 0.839999 51.635 0.839999C52.0617 0.839999 52.4283 0.993332 52.735 1.3C53.0417 1.60667 53.195 1.97333 53.195 2.4C53.195 2.81333 53.0417 3.17333 52.735 3.48C52.4283 3.77333 52.0617 3.92 51.635 3.92C51.2217 3.92 50.8617 3.77333 50.555 3.48C50.2617 3.17333 50.115 2.81333 50.115 2.4ZM54.5858 14V5H57.0258V6.62C57.7591 5.42 58.9458 4.81333 60.5858 4.8C60.6391 4.8 60.6924 4.8 60.7458 4.8C63.9324 4.8 65.5258 6.3 65.5258 9.3V14H62.9858V9.3C62.9858 7.58 62.1058 6.72 60.3458 6.72C60.3191 6.72 60.2924 6.72 60.2658 6.72C59.2391 6.72 58.4591 7.00667 57.9258 7.58C57.4058 8.14 57.1458 8.9 57.1458 9.86V14H54.5858ZM74.1058 5L76.8458 11.58L79.7458 5H81.9058L84.8058 11.58L87.5458 5H90.2658L86.0258 14H83.6058L80.8258 7.42L78.0258 14H75.5858L71.3858 5H74.1058ZM93.7944 5V14H91.2544V5H93.7944ZM90.9744 2.4C90.9744 1.97333 91.121 1.60667 91.4144 1.3C91.721 0.993332 92.081 0.839999 92.4944 0.839999C92.921 0.839999 93.2877 0.993332 93.5944 1.3C93.901 1.60667 94.0544 1.97333 94.0544 2.4C94.0544 2.81333 93.901 3.17333 93.5944 3.48C93.2877 3.77333 92.921 3.92 92.4944 3.92C92.081 3.92 91.721 3.77333 91.4144 3.48C91.121 3.17333 90.9744 2.81333 90.9744 2.4ZM94.8652 5H96.4652V2.36H98.9852V5H102.385V7.02H98.9852V11.24C98.9852 11.5067 99.0318 11.6933 99.1252 11.8C99.2318 11.8933 99.4118 11.94 99.6652 11.94H102.365V14H99.6652C98.4385 14 97.5985 13.82 97.1452 13.46C96.6918 13.1 96.4652 12.36 96.4652 11.24V7.02H94.8652V5ZM103.592 14V1.14H106.152V6.44C106.912 5.36 108.058 4.81333 109.592 4.8C109.645 4.8 109.698 4.8 109.752 4.8C112.938 4.8 114.532 6.3 114.532 9.3V14H111.992V9.3C111.992 7.58 111.112 6.72 109.352 6.72C109.325 6.72 109.298 6.72 109.272 6.72C108.245 6.72 107.465 7.00667 106.932 7.58C106.412 8.14 106.152 8.9 106.152 9.86V14H103.592ZM133.178 1.14V3.2H124.238V6.82H132.158V8.88H124.238V14H121.658V1.14H133.178ZM132.978 11.52C133.004 9.56 135.644 8.47333 140.898 8.26C141.044 8.24667 141.144 8.24 141.198 8.24V8.18C141.198 7.11333 140.318 6.58 138.558 6.58C138.118 6.58 137.731 6.62 137.398 6.7C137.078 6.76667 136.838 6.85333 136.678 6.96C136.518 7.06667 136.384 7.17333 136.278 7.28C136.184 7.38667 136.131 7.48 136.118 7.56L136.078 7.66H133.498V7.64C133.684 6.70667 134.278 5.98 135.278 5.46C136.131 5.02 137.231 4.8 138.578 4.8C140.218 4.8 141.478 5.1 142.358 5.7C143.251 6.3 143.698 7.12667 143.698 8.18V11.3C143.698 11.54 143.738 11.7067 143.818 11.8C143.898 11.8933 144.038 11.94 144.238 11.94H144.658V14H144.218C143.311 14 142.644 13.9067 142.218 13.72C141.791 13.52 141.498 13.1533 141.338 12.62C140.404 13.6733 138.918 14.2 136.878 14.2C135.544 14.2 134.558 13.9533 133.918 13.46C133.291 12.9667 132.978 12.3333 132.978 11.56C132.978 11.5467 132.978 11.5333 132.978 11.52ZM137.298 12.42C137.351 12.42 137.404 12.42 137.458 12.42C138.311 12.42 139.144 12.22 139.958 11.82C140.784 11.42 141.198 10.8867 141.198 10.22V9.76C137.491 9.88 135.638 10.4733 135.638 11.54C135.638 12.1 136.191 12.3933 137.298 12.42ZM146.685 6.06C147.711 5.22 149.105 4.8 150.865 4.8C151.545 4.8 152.165 4.86 152.725 4.98C153.298 5.1 153.765 5.25333 154.125 5.44C154.485 5.62667 154.798 5.83333 155.065 6.06C155.345 6.28667 155.558 6.51333 155.705 6.74C155.851 6.96667 155.965 7.17333 156.045 7.36C156.138 7.54667 156.191 7.7 156.205 7.82L156.245 8H153.665C153.651 7.96 153.631 7.91333 153.605 7.86C153.591 7.80667 153.518 7.70667 153.385 7.56C153.251 7.41333 153.091 7.28667 152.905 7.18C152.731 7.07333 152.458 6.97333 152.085 6.88C151.725 6.78667 151.318 6.74 150.865 6.74C149.878 6.74 149.111 6.98 148.565 7.46C148.018 7.92667 147.745 8.58 147.745 9.42C147.745 10.2733 148.025 10.96 148.585 11.48C149.145 12 149.905 12.26 150.865 12.26C151.331 12.26 151.745 12.2067 152.105 12.1C152.465 11.98 152.738 11.8467 152.925 11.7C153.111 11.54 153.265 11.38 153.385 11.22C153.505 11.06 153.578 10.92 153.605 10.8L153.665 10.64H156.205C156.205 10.6933 156.191 10.7667 156.165 10.86C156.151 10.94 156.098 11.1067 156.005 11.36C155.911 11.6 155.791 11.8333 155.645 12.06C155.511 12.2733 155.305 12.52 155.025 12.8C154.745 13.0667 154.425 13.3 154.065 13.5C153.718 13.7 153.265 13.8667 152.705 14C152.145 14.1333 151.531 14.2 150.865 14.2C149.091 14.2 147.691 13.7733 146.665 12.92C145.651 12.0533 145.145 10.8867 145.145 9.42C145.145 8.03333 145.658 6.91333 146.685 6.06ZM156.805 9.52C156.805 8.13333 157.292 7 158.265 6.12C159.252 5.24 160.592 4.8 162.285 4.8C164.005 4.8 165.338 5.24667 166.285 6.14C167.245 7.02 167.725 8.16667 167.725 9.58C167.725 9.79333 167.712 10.02 167.685 10.26H159.285C159.392 10.8733 159.718 11.3667 160.265 11.74C160.812 12.1133 161.505 12.3 162.345 12.3C162.772 12.3 163.152 12.2667 163.485 12.2C163.832 12.12 164.092 12.0267 164.265 11.92C164.452 11.8133 164.605 11.7133 164.725 11.62C164.845 11.5133 164.918 11.4267 164.945 11.36L165.005 11.24H167.545C167.532 11.28 167.512 11.34 167.485 11.42C167.472 11.4867 167.412 11.62 167.305 11.82C167.198 12.02 167.072 12.2133 166.925 12.4C166.778 12.5867 166.565 12.8 166.285 13.04C166.005 13.2667 165.692 13.46 165.345 13.62C165.012 13.78 164.578 13.9133 164.045 14.02C163.525 14.14 162.952 14.2 162.325 14.2C160.672 14.2 159.338 13.78 158.325 12.94C157.312 12.0867 156.805 10.9467 156.805 9.52ZM165.285 8.58C165.272 8.02 164.992 7.56667 164.445 7.22C163.898 6.87333 163.185 6.7 162.305 6.7C161.465 6.7 160.778 6.88 160.245 7.24C159.725 7.6 159.412 8.04667 159.305 8.58H165.285ZM171.366 1.14V6.36C172.166 5.4 173.253 4.89333 174.626 4.84C174.773 4.84 174.92 4.84 175.066 4.84C176.693 4.84 178.013 5.27333 179.026 6.14C180.04 6.99333 180.546 8.12 180.546 9.52C180.546 10.96 180.046 12.1 179.046 12.94C178.046 13.7667 176.74 14.18 175.126 14.18C174.953 14.18 174.78 14.1733 174.606 14.16C173.193 14.0933 172.093 13.5467 171.306 12.52V14H168.806V1.14H171.366ZM172.326 11.52C172.993 12 173.786 12.24 174.706 12.24C175.613 12.24 176.38 12 177.006 11.52C177.646 11.04 177.966 10.3733 177.966 9.52C177.966 8.65333 177.653 7.98 177.026 7.5C176.4 7.00667 175.626 6.76 174.706 6.76C173.773 6.76 172.973 6.98667 172.306 7.44C171.653 7.88 171.326 8.56667 171.326 9.5C171.326 10.38 171.66 11.0533 172.326 11.52ZM183.034 6.14C184.1 5.24667 185.54 4.8 187.354 4.8C189.18 4.8 190.62 5.25333 191.674 6.16C192.74 7.05333 193.274 8.16667 193.274 9.5C193.274 10.86 192.74 11.9867 191.674 12.88C190.62 13.76 189.18 14.2 187.354 14.2C185.54 14.2 184.1 13.7533 183.034 12.86C181.967 11.9533 181.434 10.8333 181.434 9.5C181.434 8.16667 181.967 7.04667 183.034 6.14ZM184.034 9.5C184.034 10.2733 184.327 10.9267 184.914 11.46C185.5 11.9933 186.314 12.26 187.354 12.26C188.394 12.26 189.207 11.9933 189.794 11.46C190.394 10.9267 190.694 10.2733 190.694 9.5C190.694 8.68667 190.4 8.02 189.814 7.5C189.227 6.99333 188.407 6.74 187.354 6.74C186.3 6.74 185.48 7 184.894 7.52C184.32 8.02667 184.034 8.68667 184.034 9.5ZM195.768 6.14C196.835 5.24667 198.275 4.8 200.088 4.8C201.915 4.8 203.355 5.25333 204.408 6.16C205.475 7.05333 206.008 8.16667 206.008 9.5C206.008 10.86 205.475 11.9867 204.408 12.88C203.355 13.76 201.915 14.2 200.088 14.2C198.275 14.2 196.835 13.7533 195.768 12.86C194.701 11.9533 194.168 10.8333 194.168 9.5C194.168 8.16667 194.701 7.04667 195.768 6.14ZM196.768 9.5C196.768 10.2733 197.061 10.9267 197.648 11.46C198.235 11.9933 199.048 12.26 200.088 12.26C201.128 12.26 201.941 11.9933 202.528 11.46C203.128 10.9267 203.428 10.2733 203.428 9.5C203.428 8.68667 203.135 8.02 202.548 7.5C201.961 6.99333 201.141 6.74 200.088 6.74C199.035 6.74 198.215 7 197.628 7.52C197.055 8.02667 196.768 8.68667 196.768 9.5ZM207.107 14V1.14H209.667V9.22L214.467 5H217.647L213.247 8.84L218.187 14H215.207L211.607 10.24L209.667 11.94V14H207.107Z" fill="white"/>
</svg>
