<svg width="30" height="24" viewBox="0 0 30 24" fill="none" xmlns="http://www.w3.org/2000/svg">
<path d="M29.5628 3.01453C28.4905 3.47709 27.3236 3.81 26.1216 3.93966C27.3695 3.19828 28.304 2.02701 28.7498 0.645622C27.5788 1.34224 26.2959 1.83072 24.9582 2.08939C24.399 1.49165 23.7228 1.01546 22.9716 0.690503C22.2204 0.365541 21.4103 0.198768 20.5918 0.200576C17.2803 0.200576 14.617 2.88487 14.617 6.17891C14.617 6.64147 14.6731 7.10404 14.7642 7.54909C9.80559 7.28977 5.38317 4.92086 2.44307 1.29392C1.90735 2.20894 1.62661 3.25081 1.63007 4.31112C1.63007 6.38566 2.68486 8.2149 4.29333 9.29072C3.34544 9.25339 2.41974 8.99285 1.59152 8.53029V8.60388C1.59152 11.5089 3.64504 13.9164 6.3819 14.4701C5.86802 14.6036 5.33939 14.6718 4.80847 14.6733C4.41949 14.6733 4.05154 14.6348 3.68008 14.5822C4.43701 16.9511 6.64121 18.6717 9.26593 18.7278C7.21241 20.3363 4.64026 21.2824 1.84733 21.2824C1.34622 21.2824 0.883653 21.2649 0.403564 21.2088C3.05281 22.9084 6.19617 23.8896 9.58132 23.8896C20.5708 23.8896 26.5842 14.7855 26.5842 6.88327C26.5842 6.62395 26.5842 6.36463 26.5666 6.10532C27.7301 5.25377 28.7498 4.19898 29.5628 3.01453Z" fill="#07EFF2"/>
</svg>
