<svg width="28" height="22" viewBox="0 0 28 22" fill="none" xmlns="http://www.w3.org/2000/svg">
<path d="M27.3875 3.84882C27.2286 3.21565 26.9171 2.63823 26.4841 2.17436C26.0512 1.71048 25.512 1.37643 24.9204 1.20562C22.7431 0.57898 14.0151 0.578979 14.0151 0.578979C14.0151 0.578979 5.28703 0.578979 3.1097 1.20228C2.51792 1.37254 1.97843 1.70641 1.5454 2.17037C1.11236 2.63433 0.801033 3.21204 0.642673 3.84549C0.0601805 6.17871 0.0601807 11.0451 0.0601807 11.0451C0.0601807 11.0451 0.0601805 15.9116 0.642673 18.2415C0.96351 19.5281 1.91045 20.5414 3.1097 20.8847C5.28703 21.5113 14.0151 21.5113 14.0151 21.5113C14.0151 21.5113 22.7431 21.5113 24.9204 20.8847C26.1228 20.5414 27.0666 19.5281 27.3875 18.2415C27.97 15.9116 27.97 11.0451 27.97 11.0451C27.97 11.0451 27.97 6.17871 27.3875 3.84882ZM11.2428 15.5116V6.57869L18.4694 11.0118L11.2428 15.5116Z" fill="#07EFF2"/>
</svg>
