<?xml version="1.0" encoding="utf-8"?>
<!-- Generator: Adobe Illustrator 24.3.0, SVG Export Plug-In . SVG Version: 6.00 Build 0)  -->
<svg version="1.1" id="Layer_1" xmlns="http://www.w3.org/2000/svg" xmlns:xlink="http://www.w3.org/1999/xlink" x="0px" y="0px"
	 viewBox="0 0 640 976" style="enable-background:new 0 0 640 976;" xml:space="preserve">
<style type="text/css">
	.st0{fill:#08EFF2;}
</style>
<g>
	<polygon class="st0" points="341.5,741.3 426.3,638.6 341.5,553.3 	"/>
	<polygon class="st0" points="341.5,250.2 341.5,430 425.7,347.5 	"/>
	<path class="st0" d="M349,0h-58C130.3,0,0,130.3,0,291v394c0,160.7,130.3,291,291,291h58c160.7,0,291-130.3,291-291V291
		C640,130.3,509.7,0,349,0z M497.7,635.4L288.5,888.7V556.2L175.6,666.9l-37.1-37.8l141-138.2L138.2,348.7l37.6-37.4l112.7,113.4
		V107.8l209.8,242.7L354.7,491.3L497.7,635.4z"/>
</g>
</svg>
