<svg xmlns="http://www.w3.org/2000/svg" xmlns:svgjs="http://svgjs.com/svgjs" xmlns:xlink="http://www.w3.org/1999/xlink" width="288" height="288"><svg xmlns="http://www.w3.org/2000/svg" width="288" height="288" data-name="Layer 1" viewBox="0 0 64 64"><path fill="#63c9d8" d="M45.49,54.9a2.67,2.67,0,0,1-1.89-.78l-1.05-1a.67.67,0,0,0-.47-.2H40.59a2.68,2.68,0,0,1-2.67-2.67V48.71a.67.67,0,0,0-.2-.47l-1-1.05a2.68,2.68,0,0,1,0-3.78l1-1a.65.65,0,0,0,.2-.47V40.4a2.68,2.68,0,0,1,2.67-2.67h1.49a.67.67,0,0,0,.47-.2l1.05-1.05a2.68,2.68,0,0,1,3.78,0l1,1.05a.65.65,0,0,0,.47.2h1.49a2.68,2.68,0,0,1,2.67,2.67v1.49a.65.65,0,0,0,.2.47l1.05,1a2.68,2.68,0,0,1,0,3.78l-1.05,1.05a.67.67,0,0,0-.2.47V50.2a2.68,2.68,0,0,1-2.67,2.67H48.9a.65.65,0,0,0-.47.2l-1,1A2.67,2.67,0,0,1,45.49,54.9Zm-4.9-15.17a.67.67,0,0,0-.67.67v1.49a2.69,2.69,0,0,1-.78,1.89l-1.06,1a.68.68,0,0,0,0,1l1.06,1a2.65,2.65,0,0,1,.78,1.88V50.2a.67.67,0,0,0,.67.67h1.49a2.62,2.62,0,0,1,1.88.79L45,52.71a.68.68,0,0,0,.94,0L47,51.66a2.62,2.62,0,0,1,1.88-.79h1.49a.67.67,0,0,0,.67-.67V48.71a2.65,2.65,0,0,1,.78-1.88l1.06-1a.68.68,0,0,0,0-1l-1.06-1a2.69,2.69,0,0,1-.78-1.89V40.4a.67.67,0,0,0-.67-.67H48.9A2.69,2.69,0,0,1,47,39L46,37.9a.66.66,0,0,0-.94,0L44,39a2.65,2.65,0,0,1-1.88.78Z" class="color000 svgShape"/><path fill="#63c9d8" d="M41.87,63h0a1,1,0,0,1-.91-.61l-1-2.28L37.68,61a1,1,0,0,1-1.07-.26,1,1,0,0,1-.19-1.08L40,51.47a1,1,0,1,1,1.83.8l-2.61,6,1-.37a1,1,0,0,1,1.27.55l.42,1,2.6-6a1,1,0,1,1,1.83.8l-3.53,8.1A1,1,0,0,1,41.87,63Z" class="color000 svgShape"/><path fill="#63c9d8" d="M49.11 63a1 1 0 01-.92-.6l-3.54-8.1a1 1 0 011.84-.8l2.6 6 .42-1a1 1 0 011.26-.55l1 .37-2.62-6a1 1 0 011.84-.8l3.55 8.15a1 1 0 01-.19 1.08A1 1 0 0153.3 61L51 60.11 50 62.39a1 1 0 01-.91.61zM42.94 50.22a1 1 0 01-.58-.19 1 1 0 01-.4-1l.4-2.32-1.69-1.64a1 1 0 01.56-1.7l2.32-.34 1-2.11a1 1 0 011.8 0l1 2.11 2.32.34a1 1 0 01.56 1.7l-1.69 1.64.4 2.32a1 1 0 01-.4 1 1 1 0 01-1 .07L45.49 49 43.41 50.1A1 1 0 0142.94 50.22zm2.55-3.34A1.12 1.12 0 0146 47l.75.4-.15-.84a1 1 0 01.29-.88l.61-.59L46.62 45a1 1 0 01-.75-.54l-.38-.77-.38.77a1 1 0 01-.75.54l-.84.13.61.59a1 1 0 01.29.88l-.15.84L45 47A1.12 1.12 0 0145.49 46.88zM47.28 14.2H40.17a5.1 5.1 0 01-5.09-5.09V2a1 1 0 012 0V9.11a3.09 3.09 0 003.09 3.09h7.11a1 1 0 010 2z" class="color000 svgShape"/><path fill="#63c9d8" d="M34.64,49.28H14a5.09,5.09,0,0,1-5.09-5.09V6.09A5.09,5.09,0,0,1,14,1H36.08a1,1,0,0,1,.71.29L48,12.5a1,1,0,0,1,.29.7V34.29a1,1,0,0,1-2,0V13.62L35.67,3H14a3.1,3.1,0,0,0-3.09,3.09v38.1A3.09,3.09,0,0,0,14,47.28H34.64a1,1,0,0,1,0,2Z" class="color000 svgShape"/><path fill="#63c9d8" d="M41.68 20.36h-26a1 1 0 110-2h26a1 1 0 010 2zM41.68 27.11h-26a1 1 0 110-2h26a1 1 0 010 2zM41.68 33.86h-26a1 1 0 110-2h26a1 1 0 010 2z" class="color000 svgShape"/></svg></svg>