<svg xmlns="http://www.w3.org/2000/svg" xmlns:xlink="http://www.w3.org/1999/xlink" version="1.1" width="1000" height="1000" viewBox="0 0 1000 1000" xml:space="preserve">
<desc>Created with Fabric.js 3.5.0</desc>
<defs>
</defs>
<rect x="0" y="0" width="100%" height="100%" fill="#ffffff"/>
<g transform="matrix(3.51 0 0 3.51 507.4995 508.4999)" id="817881">
<path style="stroke: rgb(7,239,242); stroke-opacity: 0.5; stroke-width: 16; stroke-dasharray: none; stroke-linecap: butt; stroke-dashoffset: 0; stroke-linejoin: miter; stroke-miterlimit: 4; is-custom-font: none; font-file-url: none; fill: rgb(7,239,242); fill-rule: nonzero; opacity: 1;" vector-effect="non-scaling-stroke" transform=" translate(-130.5, -21.5)" d="M 1 10.973 V 42 H 242.923 L 260 31.2883 V 1 H 18.0769 L 1 10.973 Z" stroke-linecap="round"/>
</g>
<g transform="matrix(1 0 0 1 530.6818 500)" style="" id="137710">
		
<path xml:space="preserve" font-family="Lato" font-size="56" font-style="normal" font-weight="normal" style="stroke: none; stroke-width: 1; stroke-dasharray: none; stroke-linecap: butt; stroke-dashoffset: 0; stroke-linejoin: miter; stroke-miterlimit: 4; is-custom-font: none; font-file-url: none; fill: rgb(255,255,255); fill-rule: nonzero; opacity: 1; white-space: pre;" d="M-243.34-18.84L-244.66-16.26Q-244.91-15.84-245.19-15.63Q-245.47-15.42-245.92-15.42L-245.92-15.42Q-246.39-15.42-247.02-15.90Q-247.65-16.37-248.62-16.95Q-249.59-17.52-250.94-18.00Q-252.30-18.47-254.23-18.47L-254.23-18.47Q-256.05-18.47-257.45-17.98Q-258.85-17.49-259.79-16.65Q-260.73-15.81-261.21-14.68Q-261.68-13.54-261.68-12.23L-261.68-12.23Q-261.68-10.55-260.86-9.44Q-260.03-8.34-258.67-7.55Q-257.31-6.77-255.59-6.19Q-253.87-5.62-252.06-5.00Q-250.26-4.39-248.54-3.62Q-246.81-2.85-245.46-1.67Q-244.10-0.50-243.27 1.21Q-242.45 2.92-242.45 5.41L-242.45 5.41Q-242.45 8.04-243.34 10.35Q-244.24 12.66-245.96 14.37Q-247.68 16.08-250.19 17.06Q-252.69 18.04-255.89 18.04L-255.89 18.04Q-259.78 18.04-262.98 16.63Q-266.19 15.21-268.46 12.80L-268.46 12.80L-266.89 10.23Q-266.67 9.92-266.34 9.71Q-266.02 9.50-265.63 9.50L-265.63 9.50Q-265.04 9.50-264.29 10.13Q-263.53 10.76-262.40 11.52Q-261.26 12.27-259.65 12.90Q-258.04 13.53-255.72 13.53L-255.72 13.53Q-253.79 13.53-252.27 13.00Q-250.76 12.47-249.71 11.50Q-248.66 10.54-248.10 9.19Q-247.54 7.85-247.54 6.20L-247.54 6.20Q-247.54 4.38-248.37 3.21Q-249.19 2.05-250.54 1.27Q-251.88 0.48-253.60-0.06Q-255.33-0.61-257.13-1.18Q-258.94-1.76-260.66-2.51Q-262.38-3.27-263.73-4.47Q-265.07-5.68-265.90-7.48Q-266.72-9.29-266.72-11.95L-266.72-11.95Q-266.72-14.08-265.90-16.06Q-265.07-18.05-263.50-19.59Q-261.93-21.13-259.62-22.06Q-257.31-22.98-254.32-22.98L-254.32-22.98Q-250.96-22.98-248.19-21.92Q-245.41-20.85-243.34-18.84L-243.34-18.84ZM-235.75-10.77L-230.77-10.77L-230.77 17.59L-235.75 17.59L-235.75-10.77ZM-229.65-19.68L-229.65-19.68Q-229.65-18.95-229.94-18.32Q-230.24-17.69-230.73-17.20Q-231.22-16.71-231.86-16.43Q-232.51-16.15-233.23-16.15L-233.23-16.15Q-233.96-16.15-234.59-16.43Q-235.22-16.71-235.71-17.20Q-236.20-17.69-236.48-18.32Q-236.76-18.95-236.76-19.68L-236.76-19.68Q-236.76-20.40-236.48-21.06Q-236.20-21.72-235.71-22.21Q-235.22-22.70-234.59-22.98Q-233.96-23.26-233.23-23.26L-233.23-23.26Q-232.51-23.26-231.86-22.98Q-231.22-22.70-230.73-22.21Q-230.24-21.72-229.94-21.06Q-229.65-20.40-229.65-19.68ZM-212.43-11.25L-212.43-11.25Q-210.58-11.25-208.97-10.84Q-207.36-10.44-206.05-9.65L-206.05-9.65L-198.35-9.65L-198.35-7.80Q-198.35-6.88-199.52-6.63L-199.52-6.63L-202.74-6.18Q-201.79-4.36-201.79-2.12L-201.79-2.12Q-201.79-0.05-202.59 1.65Q-203.39 3.34-204.80 4.54Q-206.21 5.75-208.16 6.39Q-210.11 7.04-212.43 7.04L-212.43 7.04Q-214.42 7.04-216.18 6.56L-216.18 6.56Q-217.08 7.12-217.54 7.76Q-218.00 8.41-218.00 9.02L-218.00 9.02Q-218.00 10.03-217.19 10.55Q-216.38 11.07-215.03 11.29Q-213.69 11.52-211.98 11.57Q-210.27 11.63-208.50 11.75Q-206.72 11.88-205.01 12.19Q-203.30 12.50-201.96 13.20Q-200.61 13.90-199.80 15.13Q-198.99 16.36-198.99 18.32L-198.99 18.32Q-198.99 20.14-199.90 21.85Q-200.81 23.56-202.52 24.89Q-204.23 26.22-206.69 27.01Q-209.15 27.81-212.26 27.81L-212.26 27.81Q-215.37 27.81-217.71 27.20Q-220.05 26.58-221.59 25.54Q-223.13 24.51-223.90 23.15Q-224.67 21.79-224.67 20.31L-224.67 20.31Q-224.67 18.21-223.34 16.74Q-222.01 15.27-219.68 14.40L-219.68 14.40Q-220.89 13.84-221.60 12.90Q-222.31 11.96-222.31 10.40L-222.31 10.40Q-222.31 9.78-222.09 9.12Q-221.87 8.46-221.40 7.82Q-220.94 7.18-220.27 6.59Q-219.60 6.00-218.70 5.55L-218.70 5.55Q-220.80 4.38-221.99 2.43Q-223.18 0.48-223.18-2.12L-223.18-2.12Q-223.18-4.19-222.38-5.89Q-221.59-7.58-220.16-8.77Q-218.73-9.96-216.76-10.60Q-214.78-11.25-212.43-11.25ZM-203.58 19.13L-203.58 19.13Q-203.58 18.07-204.17 17.42Q-204.76 16.78-205.77 16.43Q-206.77 16.08-208.09 15.91Q-209.41 15.74-210.86 15.67Q-212.32 15.60-213.83 15.52Q-215.34 15.44-216.71 15.21L-216.71 15.21Q-218.31 15.97-219.30 17.06Q-220.30 18.15-220.30 19.66L-220.30 19.66Q-220.30 20.62-219.81 21.44Q-219.32 22.27-218.31 22.87Q-217.30 23.47-215.78 23.82Q-214.25 24.17-212.18 24.17L-212.18 24.17Q-210.16 24.17-208.57 23.81Q-206.97 23.44-205.86 22.77Q-204.76 22.10-204.17 21.18Q-203.58 20.25-203.58 19.13ZM-212.43 3.73L-212.43 3.73Q-210.92 3.73-209.76 3.31Q-208.59 2.89-207.81 2.14Q-207.03 1.38-206.63 0.33Q-206.24-0.72-206.24-1.98L-206.24-1.98Q-206.24-4.58-207.82-6.12Q-209.41-7.66-212.43-7.66L-212.43-7.66Q-215.43-7.66-217.01-6.12Q-218.59-4.58-218.59-1.98L-218.59-1.98Q-218.59-0.72-218.18 0.33Q-217.78 1.38-216.99 2.14Q-216.21 2.89-215.06 3.31Q-213.91 3.73-212.43 3.73ZM-188.38 17.59L-193.36 17.59L-193.36-10.77L-190.39-10.77Q-189.33-10.77-189.05-9.74L-189.05-9.74L-188.66-6.66Q-186.81-8.70-184.53-9.96Q-182.25-11.22-179.25-11.22L-179.25-11.22Q-176.93-11.22-175.15-10.45Q-173.37-9.68-172.18-8.27Q-170.99-6.85-170.37-4.86Q-169.76-2.88-169.76-0.47L-169.76-0.47L-169.76 17.59L-174.74 17.59L-174.74-0.47Q-174.74-3.69-176.21-5.47Q-177.68-7.24-180.71-7.24L-180.71-7.24Q-182.92-7.24-184.84-6.18Q-186.75-5.12-188.38-3.30L-188.38-3.30L-188.38 17.59ZM-150.86-10.77L-145.87-10.77L-145.87 17.59L-150.86 17.59L-150.86-10.77ZM-144.75-19.68L-144.75-19.68Q-144.75-18.95-145.05-18.32Q-145.34-17.69-145.83-17.20Q-146.32-16.71-146.97-16.43Q-147.61-16.15-148.34-16.15L-148.34-16.15Q-149.07-16.15-149.70-16.43Q-150.33-16.71-150.82-17.20Q-151.31-17.69-151.59-18.32Q-151.87-18.95-151.87-19.68L-151.87-19.68Q-151.87-20.40-151.59-21.06Q-151.31-21.72-150.82-22.21Q-150.33-22.70-149.70-22.98Q-149.07-23.26-148.34-23.26L-148.34-23.26Q-147.61-23.26-146.97-22.98Q-146.32-22.70-145.83-22.21Q-145.34-21.72-145.05-21.06Q-144.75-20.40-144.75-19.68ZM-132.10 17.59L-137.08 17.59L-137.08-10.77L-134.11-10.77Q-133.05-10.77-132.77-9.74L-132.77-9.74L-132.38-6.66Q-130.53-8.70-128.25-9.96Q-125.97-11.22-122.97-11.22L-122.97-11.22Q-120.65-11.22-118.87-10.45Q-117.09-9.68-115.90-8.27Q-114.71-6.85-114.09-4.86Q-113.48-2.88-113.48-0.47L-113.48-0.47L-113.48 17.59L-118.46 17.59L-118.46-0.47Q-118.46-3.69-119.93-5.47Q-121.40-7.24-124.43-7.24L-124.43-7.24Q-126.64-7.24-128.56-6.18Q-130.47-5.12-132.10-3.30L-132.10-3.30L-132.10 17.59ZM-89.65 17.59L-98.83-10.77L-94.91-10.77Q-94.30-10.77-93.91-10.46Q-93.51-10.16-93.37-9.74L-93.37-9.74L-87.94 8.52Q-87.72 9.53-87.52 10.47Q-87.33 11.40-87.19 12.36L-87.19 12.36Q-86.96 11.40-86.68 10.47Q-86.40 9.53-86.09 8.52L-86.09 8.52L-80.10-9.85Q-79.96-10.27-79.61-10.55Q-79.26-10.83-78.73-10.83L-78.73-10.83L-76.57-10.83Q-76.01-10.83-75.65-10.55Q-75.29-10.27-75.15-9.85L-75.15-9.85L-69.29 8.52Q-68.99 9.50-68.75 10.45Q-68.51 11.40-68.29 12.33L-68.29 12.33Q-68.15 11.40-67.92 10.40Q-67.70 9.39-67.45 8.52L-67.45 8.52L-61.90-9.74Q-61.76-10.18-61.37-10.48Q-60.98-10.77-60.45-10.77L-60.45-10.77L-56.69-10.77L-65.88 17.59L-69.83 17.59Q-70.55 17.59-70.83 16.64L-70.83 16.64L-77.11-2.60Q-77.33-3.24-77.47-3.90Q-77.61-4.56-77.75-5.20L-77.75-5.20Q-77.89-4.56-78.03-3.88Q-78.17-3.21-78.39-2.57L-78.39-2.57L-84.75 16.64Q-85.06 17.59-85.90 17.59L-85.90 17.59L-89.65 17.59ZM-51.68-10.77L-46.70-10.77L-46.70 17.59L-51.68 17.59L-51.68-10.77ZM-45.58-19.68L-45.58-19.68Q-45.58-18.95-45.87-18.32Q-46.17-17.69-46.66-17.20Q-47.15-16.71-47.79-16.43Q-48.43-16.15-49.16-16.15L-49.16-16.15Q-49.89-16.15-50.52-16.43Q-51.15-16.71-51.64-17.20Q-52.13-17.69-52.41-18.32Q-52.69-18.95-52.69-19.68L-52.69-19.68Q-52.69-20.40-52.41-21.06Q-52.13-21.72-51.64-22.21Q-51.15-22.70-50.52-22.98Q-49.89-23.26-49.16-23.26L-49.16-23.26Q-48.43-23.26-47.79-22.98Q-47.15-22.70-46.66-22.21Q-46.17-21.72-45.87-21.06Q-45.58-20.40-45.58-19.68ZM-29.31 18.04L-29.31 18.04Q-32.67 18.04-34.48 16.16Q-36.28 14.29-36.28 10.76L-36.28 10.76L-36.28-6.60L-39.70-6.60Q-40.15-6.60-40.45-6.87Q-40.76-7.13-40.76-7.69L-40.76-7.69L-40.76-9.68L-36.11-10.27L-34.97-19.03Q-34.91-19.45-34.60-19.72Q-34.29-19.98-33.82-19.98L-33.82-19.98L-31.30-19.98L-31.30-10.21L-23.18-10.21L-23.18-6.60L-31.30-6.60L-31.30 10.42Q-31.30 12.22-30.43 13.08Q-29.56 13.95-28.19 13.95L-28.19 13.95Q-27.41 13.95-26.83 13.74Q-26.26 13.53-25.84 13.28Q-25.42 13.03-25.12 12.82Q-24.83 12.61-24.61 12.61L-24.61 12.61Q-24.21 12.61-23.91 13.08L-23.91 13.08L-22.45 15.46Q-23.74 16.67-25.56 17.35Q-27.38 18.04-29.31 18.04ZM-12.03 17.59L-17.02 17.59L-17.02-23.65L-12.03-23.65L-12.03-6.96Q-10.21-8.90-8.00-10.06Q-5.79-11.22-2.91-11.22L-2.91-11.22Q-0.58-11.22 1.20-10.45Q2.97-9.68 4.16-8.27Q5.35-6.85 5.97-4.86Q6.59-2.88 6.59-0.47L6.59-0.47L6.59 17.59L1.60 17.59L1.60-0.47Q1.60-3.69 0.13-5.47Q-1.34-7.24-4.36-7.24L-4.36-7.24Q-6.57-7.24-8.49-6.18Q-10.41-5.12-12.03-3.30L-12.03-3.30L-12.03 17.59ZM25.71-22.53L50.43-22.53L50.43-18.11L31.17-18.11L31.17-4.08L47.63-4.08L47.63 0.34L31.17 0.34L31.17 17.59L25.71 17.59L25.71-22.53ZM77.45-0.55L77.45 17.59L75.24 17.59Q74.51 17.59 74.07 17.37Q73.62 17.14 73.48 16.42L73.48 16.42L72.92 13.78Q71.80 14.79 70.73 15.59Q69.67 16.39 68.49 16.93Q67.32 17.48 65.99 17.76Q64.66 18.04 63.03 18.04L63.03 18.04Q61.38 18.04 59.94 17.58Q58.50 17.12 57.43 16.19Q56.37 15.27 55.74 13.85Q55.11 12.44 55.11 10.51L55.11 10.51Q55.11 8.83 56.03 7.27Q56.96 5.72 59.02 4.52Q61.07 3.31 64.41 2.54Q67.74 1.77 72.55 1.66L72.55 1.66L72.55-0.55Q72.55-3.86 71.14-5.55Q69.73-7.24 66.95-7.24L66.95-7.24Q65.13-7.24 63.89-6.78Q62.64-6.32 61.73-5.75Q60.82-5.17 60.16-4.71Q59.51-4.25 58.86-4.25L58.86-4.25Q58.36-4.25 57.98-4.51Q57.60-4.78 57.38-5.17L57.38-5.17L56.48-6.77Q58.83-9.04 61.55-10.16Q64.27-11.28 67.57-11.28L67.57-11.28Q69.95-11.28 71.80-10.49Q73.65-9.71 74.91-8.31Q76.17-6.91 76.81-4.92Q77.45-2.93 77.45-0.55L77.45-0.55ZM64.52 14.54L64.52 14.54Q65.83 14.54 66.93 14.27Q68.02 14.01 68.98 13.52Q69.95 13.03 70.83 12.33Q71.71 11.63 72.55 10.73L72.55 10.73L72.55 4.82Q69.11 4.94 66.70 5.37Q64.29 5.80 62.78 6.50Q61.27 7.20 60.58 8.16Q59.90 9.11 59.90 10.28L59.90 10.28Q59.90 11.40 60.26 12.22Q60.63 13.03 61.24 13.55Q61.86 14.06 62.70 14.30Q63.54 14.54 64.52 14.54ZM105.68-7.52L104.36-5.73Q104.14-5.42 103.91-5.26Q103.69-5.09 103.27-5.09L103.27-5.09Q102.85-5.09 102.36-5.44Q101.87-5.79 101.11-6.21Q100.36-6.63 99.28-6.98Q98.20-7.33 96.63-7.33L96.63-7.33Q94.56-7.33 92.97-6.59Q91.37-5.84 90.29-4.44Q89.21-3.04 88.67-1.06Q88.12 0.93 88.12 3.40L88.12 3.40Q88.12 5.97 88.71 7.97Q89.30 9.98 90.36 11.33Q91.43 12.69 92.95 13.41Q94.48 14.12 96.38 14.12L96.38 14.12Q98.20 14.12 99.38 13.69Q100.55 13.25 101.34 12.72Q102.12 12.19 102.63 11.75Q103.13 11.32 103.63 11.32L103.63 11.32Q104.28 11.32 104.59 11.80L104.59 11.80L105.99 13.62Q104.14 15.88 101.37 16.93Q98.59 17.98 95.51 17.98L95.51 17.98Q92.85 17.98 90.57 17.00Q88.29 16.02 86.61 14.16Q84.93 12.30 83.96 9.58Q83.00 6.87 83.00 3.40L83.00 3.40Q83.00 0.23 83.88-2.46Q84.76-5.14 86.46-7.09Q88.15-9.04 90.64-10.13Q93.13-11.22 96.35-11.22L96.35-11.22Q99.32-11.22 101.62-10.25Q103.91-9.29 105.68-7.52L105.68-7.52ZM122.39-11.22L122.39-11.22Q124.94-11.22 127.10-10.37Q129.25-9.51 130.82-7.90Q132.39-6.29 133.27-3.93Q134.15-1.56 134.15 1.46L134.15 1.46Q134.15 2.64 133.90 3.03Q133.65 3.42 132.95 3.42L132.95 3.42L114.08 3.42Q114.13 6.11 114.81 8.10Q115.48 10.09 116.65 11.42Q117.83 12.75 119.45 13.41Q121.08 14.06 123.09 14.06L123.09 14.06Q124.97 14.06 126.33 13.63Q127.69 13.20 128.67 12.69Q129.65 12.19 130.30 11.75Q130.96 11.32 131.44 11.32L131.44 11.32Q132.05 11.32 132.39 11.80L132.39 11.80L133.79 13.62Q132.87 14.74 131.58 15.56Q130.29 16.39 128.82 16.92Q127.35 17.45 125.78 17.72Q124.21 17.98 122.67 17.98L122.67 17.98Q119.73 17.98 117.26 16.99Q114.78 16.00 112.97 14.08Q111.17 12.16 110.16 9.33Q109.15 6.50 109.15 2.84L109.15 2.84Q109.15-0.13 110.06-2.71Q110.97-5.28 112.68-7.17Q114.39-9.06 116.85-10.14Q119.31-11.22 122.39-11.22ZM122.51-7.55L122.51-7.55Q118.89-7.55 116.82-5.47Q114.75-3.38 114.25 0.32L114.25 0.32L129.67 0.32Q129.67-1.42 129.20-2.86Q128.72-4.30 127.80-5.35Q126.87-6.40 125.54-6.98Q124.21-7.55 122.51-7.55ZM143.90 17.59L140.68 17.59L140.68-23.65L145.69-23.65L145.69-6.68Q147.45-8.73 149.74-9.97Q152.02-11.22 154.96-11.22L154.96-11.22Q157.42-11.22 159.41-10.30Q161.40-9.37 162.80-7.54Q164.20-5.70 164.95-3.00Q165.71-0.30 165.71 3.23L165.71 3.23Q165.71 6.36 164.87 9.07Q164.03 11.77 162.45 13.74Q160.87 15.72 158.58 16.85Q156.30 17.98 153.45 17.98L153.45 17.98Q150.70 17.98 148.78 16.92Q146.87 15.86 145.44 13.95L145.44 13.95L145.19 16.53Q144.96 17.59 143.90 17.59L143.90 17.59ZM153.33-7.24L153.33-7.24Q150.90-7.24 149.06-6.12Q147.23-5.00 145.69-2.96L145.69-2.96L145.69 10.76Q147.03 12.61 148.67 13.36Q150.31 14.12 152.33 14.12L152.33 14.12Q156.30 14.12 158.43 11.29Q160.56 8.46 160.56 3.23L160.56 3.23Q160.56 0.46 160.07-1.53Q159.58-3.52 158.65-4.79Q157.73-6.07 156.39-6.66Q155.04-7.24 153.33-7.24ZM183.29-11.22L183.29-11.22Q186.40-11.22 188.91-10.18Q191.41-9.15 193.16-7.24Q194.91-5.34 195.85-2.64Q196.79 0.06 196.79 3.40L196.79 3.40Q196.79 6.76 195.85 9.44Q194.91 12.13 193.16 14.04Q191.41 15.94 188.91 16.96Q186.40 17.98 183.29 17.98L183.29 17.98Q180.19 17.98 177.68 16.96Q175.17 15.94 173.41 14.04Q171.65 12.13 170.69 9.44Q169.74 6.76 169.74 3.40L169.74 3.40Q169.74 0.06 170.69-2.64Q171.65-5.34 173.41-7.24Q175.17-9.15 177.68-10.18Q180.19-11.22 183.29-11.22ZM183.29 14.09L183.29 14.09Q187.49 14.09 189.57 11.28Q191.64 8.46 191.64 3.42L191.64 3.42Q191.64-1.64 189.57-4.47Q187.49-7.30 183.29-7.30L183.29-7.30Q181.17-7.30 179.60-6.57Q178.03-5.84 176.98-4.47Q175.93-3.10 175.41-1.10Q174.89 0.90 174.89 3.42L174.89 3.42Q174.89 5.94 175.41 7.93Q175.93 9.92 176.98 11.28Q178.03 12.64 179.60 13.36Q181.17 14.09 183.29 14.09ZM214.43-11.22L214.43-11.22Q217.54-11.22 220.04-10.18Q222.55-9.15 224.30-7.24Q226.05-5.34 226.99-2.64Q227.93 0.06 227.93 3.40L227.93 3.40Q227.93 6.76 226.99 9.44Q226.05 12.13 224.30 14.04Q222.55 15.94 220.04 16.96Q217.54 17.98 214.43 17.98L214.43 17.98Q211.32 17.98 208.82 16.96Q206.31 15.94 204.55 14.04Q202.78 12.13 201.83 9.44Q200.88 6.76 200.88 3.40L200.88 3.40Q200.88 0.06 201.83-2.64Q202.78-5.34 204.55-7.24Q206.31-9.15 208.82-10.18Q211.32-11.22 214.43-11.22ZM214.43 14.09L214.43 14.09Q218.63 14.09 220.70 11.28Q222.77 8.46 222.77 3.42L222.77 3.42Q222.77-1.64 220.70-4.47Q218.63-7.30 214.43-7.30L214.43-7.30Q212.30-7.30 210.73-6.57Q209.17-5.84 208.12-4.47Q207.07-3.10 206.55-1.10Q206.03 0.90 206.03 3.42L206.03 3.42Q206.03 5.94 206.55 7.93Q207.07 9.92 208.12 11.28Q209.17 12.64 210.73 13.36Q212.30 14.09 214.43 14.09ZM234.25-23.65L239.27-23.65L239.27 0.62L240.55 0.62Q241.11 0.62 241.48 0.47Q241.84 0.32 242.29-0.16L242.29-0.16L251.25-9.76Q251.67-10.21 252.09-10.49Q252.51-10.77 253.21-10.77L253.21-10.77L257.75-10.77L247.30 0.34Q246.91 0.82 246.53 1.18Q246.15 1.55 245.68 1.83L245.68 1.83Q246.18 2.16 246.59 2.60Q246.99 3.03 247.36 3.59L247.36 3.59L258.45 17.59L253.97 17.59Q253.35 17.59 252.92 17.35Q252.48 17.12 252.09 16.61L252.09 16.61L242.77 4.99Q242.35 4.40 241.93 4.22Q241.51 4.04 240.67 4.04L240.67 4.04L239.27 4.04L239.27 17.59L234.25 17.59L234.25-23.65Z"/></g>
</svg>