<svg width="13" height="13" viewBox="0 0 13 13" fill="none" xmlns="http://www.w3.org/2000/svg">
<path d="M11.5017 5.54827C11.656 6.58868 11.4783 7.65125 10.9939 8.58484C10.5095 9.51843 9.74299 10.2755 8.80349 10.7484C7.864 11.2213 6.79932 11.3858 5.76089 11.2188C4.72246 11.0517 3.76315 10.5614 3.01943 9.81765C2.2757 9.07392 1.78542 8.11462 1.61832 7.07619C1.45123 6.03776 1.61582 4.97308 2.08869 4.03358C2.56157 3.09409 3.31864 2.32762 4.25223 1.8432C5.18583 1.35877 6.2484 1.18106 7.28881 1.33534C8.35007 1.49271 9.33258 1.98724 10.0912 2.74587C10.8498 3.5045 11.3444 4.48701 11.5017 5.54827Z" stroke="#07EFF2" stroke-width="2" stroke-linecap="round" stroke-linejoin="round"/>
</svg>
