<?xml version="1.0" encoding="utf-8"?>
<!-- Generator: Adobe Illustrator 24.3.0, SVG Export Plug-In . SVG Version: 6.00 Build 0)  -->
<svg version="1.1" id="Layer_1" xmlns="http://www.w3.org/2000/svg" xmlns:xlink="http://www.w3.org/1999/xlink" x="0px" y="0px"
	 viewBox="0 0 228.22 86.02" style="enable-background:new 0 0 228.22 86.02;" xml:space="preserve">
<style type="text/css">
	.st0{fill:#015556;}
	.st1{fill:#6FCCDD;}
	.st2{fill:none;stroke:#6FCCDD;stroke-width:3;stroke-linejoin:bevel;stroke-miterlimit:10;}
</style>
<g>
	<polygon class="st0" points="0.62,0.67 85.9,0.67 120.87,35.64 177.94,35.64 227.59,85.3 85.51,85.3 	"/>
	<g>
		<path class="st1" d="M0.62,1.29c6.17,0,12.34,0,18.5,0c12.32,0,24.63,0,36.95,0c9.17,0,18.33,0,27.5,0c0.53,0,1.7,0.23,2.19,0
			c0.27-0.13-0.26-0.25-0.23-0.11c0.05,0.21,0.59,0.59,0.74,0.74c3.02,3.02,6.03,6.03,9.05,9.05c7.82,7.82,15.64,15.64,23.46,23.46
			c0.51,0.51,1.04,1.25,1.65,1.65c0.55,0.36,1.48,0.18,2.1,0.18c4.21,0,8.41,0,12.62,0c11.79,0,23.57,0,35.36,0
			c1.79,0,3.59,0,5.38,0c0.17,0,1.97,0.15,2.04,0c-0.13,0.24-0.68-0.5-0.13,0.13c0.27,0.31,0.59,0.59,0.89,0.89
			c1.05,1.05,2.11,2.11,3.16,3.16c8,8,15.99,15.99,23.99,23.99c6.73,6.73,13.47,13.47,20.2,20.2c0.37,0.37,0.74,0.74,1.11,1.11
			c0.15-0.36,0.29-0.71,0.44-1.07c-4.07,0-8.15,0-12.22,0c-9.91,0-19.83,0-29.74,0c-12.52,0-25.04,0-37.55,0
			c-11.78,0-23.57,0-35.35,0c-7.74,0-15.48,0-23.22,0c-0.92,0-1.83,0-2.75,0c-0.14,0-1.11-0.11-1.2,0
			c-0.05,0.06,0.36,0.34,0.34,0.12c-0.01-0.1-0.32-0.32-0.39-0.38c-0.58-0.58-1.16-1.16-1.75-1.74
			c-5.68-5.66-11.36-11.33-17.05-16.99c-8.68-8.65-17.36-17.31-26.04-25.96C32.39,31.46,24.1,23.2,15.81,14.93
			c-4.7-4.69-9.4-9.37-14.1-14.06C1.49,0.66,1.28,0.44,1.06,0.23C0.49-0.34-0.39,0.54,0.18,1.11c3.33,3.32,6.66,6.64,9.99,9.96
			c7.77,7.75,15.55,15.5,23.32,23.25c8.9,8.87,17.79,17.74,26.69,26.61c6.68,6.66,13.36,13.32,20.04,19.98
			c1.49,1.49,2.99,2.98,4.48,4.47c0.63,0.63,1.16,0.54,2.02,0.54c6.18,0,12.37,0,18.55,0c11.11,0,22.22,0,33.33,0
			c12.68,0,25.37,0,38.05,0c10.92,0,21.83,0,32.75,0c5.79,0,11.59,0,17.38,0c0.27,0,0.53,0,0.8,0c0.54,0,0.82-0.68,0.44-1.07
			c-5.03-5.03-10.06-10.06-15.09-15.09c-8.57-8.57-17.15-17.15-25.72-25.72c-2.6-2.6-5.2-5.2-7.79-7.79
			c-0.36-0.36-0.82-1.03-1.33-1.21c-0.59-0.2-1.51-0.02-2.11-0.02c-10.56,0-21.12,0-31.68,0c-5.54,0-11.08,0-16.62,0
			c-1.69,0-3.38,0-5.07,0c-0.46,0-0.94-0.04-1.39,0c-0.73,0.07,0.18-0.09,0.06,0.16c0.07-0.14-1.79-1.79-1.92-1.92
			c-1.48-1.48-2.96-2.96-4.44-4.44c-4.26-4.26-8.52-8.52-12.78-12.78c-3.96-3.96-7.92-7.92-11.88-11.88
			c-1.1-1.1-2.21-2.21-3.31-3.31c-0.39-0.39-0.64-0.73-1.2-0.81c-0.72-0.09-1.51,0-2.23,0c-1.49,0-2.98,0-4.46,0
			c-4.75,0-9.5,0-14.25,0c-12.44,0-24.89,0-37.33,0c-8.52,0-17.04,0-25.56,0c-0.44,0-0.87,0-1.31,0C-0.19,0.04-0.19,1.29,0.62,1.29z
			"/>
	</g>
</g>
<g>
	<polyline class="st2" points="181.53,59.78 74.12,59.78 107.81,39.18 	"/>
	<polyline class="st2" points="181.53,59.78 74.12,59.78 107.81,80.38 	"/>
</g>
</svg>
