<?xml version="1.0" encoding="utf-8"?>
<!-- Generator: Adobe Illustrator 24.3.0, SVG Export Plug-In . SVG Version: 6.00 Build 0)  -->
<svg version="1.1" id="Layer_1" xmlns="http://www.w3.org/2000/svg" xmlns:xlink="http://www.w3.org/1999/xlink" x="0px" y="0px"
	 viewBox="0 0 228.22 86.02" style="enable-background:new 0 0 228.22 86.02;" xml:space="preserve">
<style type="text/css">
	.st0{fill:#015556;}
	.st1{fill:#6FCCDD;}
	.st2{fill:none;stroke:#6FCCDD;stroke-width:3;stroke-linejoin:bevel;stroke-miterlimit:10;}
</style>
<g>
	<polygon class="st0" points="227.59,0.67 142.32,0.67 107.34,35.64 50.27,35.64 0.62,85.3 142.7,85.3 	"/>
	<g>
		<path class="st1" d="M227.59,0.04c-6.2,0-12.41,0-18.61,0c-12.32,0-24.64,0-36.96,0c-9.17,0-18.34,0-27.51,0
			c-0.67,0-1.41-0.1-2.08,0c-0.58,0.08-0.85,0.48-1.26,0.88c-2.95,2.95-5.89,5.89-8.84,8.84c-7.87,7.87-15.75,15.75-23.62,23.62
			c-0.15,0.15-1.87,1.61-1.81,1.81c-0.08-0.26,0.82-0.11-0.02-0.18c-0.46-0.03-0.93,0-1.39,0c-4.29,0-8.58,0-12.87,0
			c-11.78,0-23.57,0-35.35,0c-1.75,0-3.49,0-5.24,0c-0.58,0-1.52-0.18-2.07,0.09c-0.47,0.23-0.9,0.87-1.26,1.23
			c-1.04,1.04-2.08,2.08-3.12,3.12c-8,8-16.01,16.01-24.01,24.01C14.81,70.22,8.05,76.99,1.28,83.75c-0.37,0.37-0.74,0.74-1.11,1.11
			c-0.38,0.38-0.1,1.07,0.44,1.07c4.07,0,8.15,0,12.22,0c9.99,0,19.98,0,29.97,0c12.56,0,25.13,0,37.69,0c11.76,0,23.52,0,35.28,0
			c7.7,0,15.39,0,23.09,0c1.19,0,2.61,0.22,3.79,0c0.94-0.17,1.91-1.61,2.54-2.25c5.67-5.65,11.34-11.31,17.02-16.96
			c8.67-8.64,17.34-17.29,26.01-25.93c8.35-8.32,16.69-16.64,25.04-24.97c4.7-4.68,9.39-9.36,14.09-14.04
			c0.22-0.22,0.44-0.44,0.67-0.66c0.57-0.57-0.31-1.45-0.88-0.88c-3.33,3.32-6.66,6.64-9.99,9.96
			c-7.72,7.69-15.43,15.39-23.15,23.08c-8.87,8.85-17.75,17.69-26.62,26.54c-6.72,6.7-13.44,13.4-20.16,20.09
			c-1.53,1.52-3.05,3.04-4.58,4.56c-0.05,0.05-0.35,0.28-0.35,0.35c0,0.17,0.44-0.03,0.34-0.13c-0.12-0.13-1.1,0-1.27,0
			c-6.27,0-12.54,0-18.8,0c-11.07,0-22.14,0-33.21,0c-12.68,0-25.37,0-38.05,0c-10.83,0-21.67,0-32.5,0c-5.8,0-11.6,0-17.4,0
			c-0.26,0-0.52,0-0.78,0c0.15,0.36,0.29,0.71,0.44,1.07c5-5,10.01-10.01,15.01-15.01C24.65,62.15,33.23,53.58,41.8,45
			c2.6-2.6,5.2-5.2,7.81-7.81c0.28-0.28,0.59-0.54,0.84-0.84c0.47-0.57-0.03,0.16-0.17-0.08c0.11,0.18,1.99,0,2.19,0
			c10.64,0,21.28,0,31.92,0c5.49,0,10.97,0,16.46,0c1.65,0,3.31,0,4.96,0c0.6,0,1.45,0.16,1.97-0.19c0.64-0.43,1.19-1.19,1.73-1.73
			c1.46-1.46,2.92-2.92,4.38-4.38c4.23-4.23,8.47-8.47,12.7-12.7c3.98-3.98,7.95-7.95,11.93-11.93c1.16-1.16,2.32-2.32,3.48-3.48
			c0.13-0.13,0.67-0.51,0.7-0.7c0-0.03-0.59,0.01-0.21,0.13c0.63,0.19,1.63,0,2.29,0c1.51,0,3.01,0,4.52,0c4.77,0,9.55,0,14.32,0
			c12.41,0,24.82,0,37.23,0c8.48,0,16.96,0,25.44,0c0.44,0,0.87,0,1.31,0C228.4,1.29,228.4,0.04,227.59,0.04z"/>
	</g>
</g>
<g>
	<polyline class="st2" points="46.68,59.78 154.09,59.78 120.4,39.18 	"/>
	<polyline class="st2" points="46.68,59.78 154.09,59.78 120.4,80.38 	"/>
</g>
</svg>
